<svg xmlns="http://www.w3.org/2000/svg" viewBox="0 0 120 120" fill="none"><g transform="translate(10 3)"><g><g><g><g transform="translate(26 2)"><g opacity=".15" transform="translate(-23 -6.5)"><path d="M50 50V26" stroke="#243247" stroke-width="3.5" stroke-linecap="round" stroke-linejoin="round"></path><path d="M50 27c-7 0-12-5-12-12 7 0 12 5 12 12m0 0c7 0 12-5 12-12-7 0-12 5-12 12" fill="#243247"></path></g><path d="M24 40V16" stroke="currentColor" stroke-width="3.5" stroke-linecap="round" stroke-linejoin="round"></path><path d="M24 17c-7 0-12-5-12-12 7 0 12 5 12 12m0 0c7 0 12-5 12-12-7 0-12 5-12 12" fill="currentColor"></path></g></g><path d="M23 109.5v-6l10-70q1-6 8-6h24q7 0 8 6l10 70v6Z" fill="#243247" opacity=".15"></path><defs><clipPath id="shape-06-dbcrb-wedge"><path d="M20 106v-6l10-70q1-6 8-6h24q7 0 8 6l10 70v6Z"></path></clipPath></defs><path d="M20 106v-6l10-70q1-6 8-6h24q7 0 8 6l10 70v6Z" fill="currentColor"></path><g clip-path="url(#shape-06-dbcrb-wedge)"><path d="M20 106v-6l10-70q1-6 8-6h24q7 0 8 6l10 70v6Zm3.5 4.5v-6l10-70q1-6 8-6h24q7 0 8 6l10 70v6Z" fill="#ffffff" opacity=".16" fill-rule="evenodd"></path><path d="M20 106v-6l10-70q1-6 8-6h24q7 0 8 6l10 70v6Zm-3.5-4.5v-6l10-70q1-6 8-6h24q7 0 8 6l10 70v6Z" fill="#243247" opacity=".1" fill-rule="evenodd"></path></g></g><g transform="translate(34 75)"><circle cx="6" cy="10" r="2.5" fill="#ffffff" opacity=".25"></circle><circle cx="16" cy="10" r="2.5" fill="#ffffff" opacity=".25"></circle><circle cx="26" cy="10" r="2.5" fill="#ffffff" opacity=".25"></circle></g><g transform="translate(27 36)"><g><circle cx="10" cy="13" r="7" fill="#ffffff"></circle><circle cx="10" cy="13" r="3" fill="#243247"></circle></g><g><circle cx="36" cy="13" r="7" fill="#ffffff"></circle><circle cx="36" cy="13" r="3" fill="#243247"></circle></g></g><g transform="translate(36 60)"><path d="M6 6q4 4 8 0 4 4 8 0" stroke="#243247" stroke-width="3" stroke-linecap="round" stroke-linejoin="round"></path></g></g></g></svg>
