<svg xmlns="http://www.w3.org/2000/svg" viewBox="0 0 120 120" fill="none"><g transform="translate(10 3)"><g><g><g><g transform="translate(26 8)"><g opacity=".15" transform="translate(-23 -6.5)"><path fill="#243247" d="M31 20h8v30h-8zm30 0h8v30h-8z"></path><circle cx="35" cy="21" r="9" fill="#243247"></circle><circle cx="65" cy="21" r="9" fill="#243247"></circle></g><path fill="currentColor" d="M5 10h8v30H5zm30 0h8v30h-8z"></path><circle cx="9" cy="11" r="9" fill="currentColor"></circle><circle cx="39" cy="11" r="9" fill="currentColor"></circle></g></g><path d="M13 109.5v-36c0-26 16-40 40-40s40 14 40 40v36Z" fill="#243247" opacity=".15"></path><defs><clipPath id="shape-03-dbcrb-round"><path d="M10 106V70c0-26 16-40 40-40s40 14 40 40v36Z"></path></clipPath></defs><path d="M10 106V70c0-26 16-40 40-40s40 14 40 40v36Z" fill="currentColor"></path><g clip-path="url(#shape-03-dbcrb-round)"><path d="M10 106V70c0-26 16-40 40-40s40 14 40 40v36Zm3.5 4.5v-36c0-26 16-40 40-40s40 14 40 40v36Z" fill="#ffffff" opacity=".16" fill-rule="evenodd"></path><path d="M10 106V70c0-26 16-40 40-40s40 14 40 40v36Zm-3.5-4.5v-36c0-26 16-40 40-40s40 14 40 40v36Z" fill="#243247" opacity=".1" fill-rule="evenodd"></path></g></g><g transform="translate(34 75)"><ellipse cx="16" cy="13" rx="15" ry="13" fill="#ffffff" opacity=".2"></ellipse></g><g transform="translate(28 53)"><circle cx="4" cy="5" r="3.5" fill="#ffffff" opacity=".3"></circle><circle cx="40" cy="5" r="3.5" fill="#ffffff" opacity=".3"></circle></g><g transform="translate(27 36)"><g><circle cx="10" cy="13" r="7" fill="#ffffff"></circle><circle cx="10" cy="13" r="5" fill="#243247"></circle></g><g><circle cx="36" cy="13" r="7" fill="#ffffff"></circle><circle cx="36" cy="13" r="5" fill="#243247"></circle></g></g><g transform="translate(36 60)"><path d="M9 6q5 4 10 0" stroke="#243247" stroke-width="3.5" stroke-linecap="round" stroke-linejoin="round"></path></g></g></g></svg>
